# xmcd
# Copyright (C) 1995-1998 Ti Kan
#
# Track frame offsets:
#       150
#       15970
#       32032
#       47455
#
# Disc length: 867 seconds
#
# Revision: 0
# Processed by: cddbd v1.4PL0 Copyright (c) Steve Scherf et al.
# Submitted via: CD-Transfer v1.0
#
DISCID=1f036104
DTITLE=Sanja Shane - I Can't See The Light
DYEAR=2002
DGENRE=
TTITLE0=I Can't See The Light
TTITLE1=I Just Want You To Know
TTITLE2=Crazy About You
TTITLE3=Don't Think
EXTD=
EXTT0=
EXTT1=
EXTT2=
EXTT3=
PLAYORDER=
